Coordinates
version=1
nRows=8
nColumns=40
inDegrees=yes

Units are S.I. units (second, meters, Newtons, ...)
If the header above contains a line with 'inDegrees', this indicates whether rotational values are in degrees (yes) or radians (no).

endheader
time	pelvis_tilt	pelvis_list	pelvis_rotation	pelvis_tx	pelvis_ty	pelvis_tz	hip_flexion_r	hip_adduction_r	hip_rotation_r	knee_angle_r	knee_angle_r_beta	ankle_angle_r	subtalar_angle_r	mtp_angle_r	hip_flexion_l	hip_adduction_l	hip_rotation_l	knee_angle_l	knee_angle_l_beta	ankle_angle_l	subtalar_angle_l	mtp_angle_l	lumbar_extension	lumbar_bending	lumbar_rotation	arm_flex_r	arm_add_r	arm_rot_r	elbow_flex_r	pro_sup_r	wrist_flex_r	wrist_dev_r	arm_flex_l	arm_add_l	arm_rot_l	elbow_flex_l	pro_sup_l	wrist_flex_l	wrist_dev_l
      1.85500000	    -34.77086486	      4.45116492	     -5.86697755	     -0.40561262	      0.60474305	     -0.91043734	    108.04472472	    -19.71213492	     11.20739880	    104.29456782	      1.82028360	     31.28846223	      0.00000000	      0.00000000	    106.39078948	    -30.55883958	      2.49687449	    106.99516021	      1.86741783	     38.15903960	      0.00000000	      0.00000000	    -20.44242571	     -5.18657773	      5.95792462	     16.36825608	    -54.17532698	     89.61581502	     89.96467642	     88.77458253	      0.00000000	      0.00000000	     21.91879925	    -57.74505717	     89.64068352	     97.81508945	     88.48143369	      0.00000000	      0.00000000
      1.86000000	    -34.75613846	      4.41366018	     -5.69144434	     -0.40533869	      0.60479748	     -0.91085036	    108.00865112	    -19.92175629	     11.23454859	    104.32075516	      1.82074066	     31.33159166	      0.00000000	      0.00000000	    106.36319031	    -30.34606884	      2.47117818	    107.00696979	      1.86762395	     38.12297016	      0.00000000	      0.00000000	    -20.48289146	     -5.07681575	      5.81234809	     16.35672730	    -54.23835317	     89.61082275	     90.16558132	     88.82560758	      0.00000000	      0.00000000	     21.87373774	    -57.76835738	     89.63061201	     97.97196364	     88.55197352	      0.00000000	      0.00000000
      1.86500000	    -34.80202314	      4.41844823	     -5.53373511	     -0.40499307	      0.60473638	     -0.91127023	    108.08690952	    -20.10768640	     11.31745136	    104.40534287	      1.82221699	     31.26128495	      0.00000000	      0.00000000	    106.34445066	    -30.14444168	      2.40487153	    107.00926313	      1.86766397	     38.21981934	      0.00000000	      0.00000000	    -20.43106754	     -5.00493455	      5.66702542	     16.37452797	    -54.20461015	     89.61392141	     90.00837623	     88.83514610	      0.00000000	      0.00000000	     21.87057056	    -57.65464133	     89.63681010	     97.80136636	     88.41568313	      0.00000000	      0.00000000
      1.87000000	    -34.73379937	      4.44055354	     -5.70563528	     -0.40475145	      0.60493713	     -0.91065266	    107.95984611	    -19.87775238	     11.27989749	    104.36619228	      1.82153368	     31.39292310	      0.00000000	      0.00000000	    106.26616734	    -30.38769881	      2.43938372	    107.01324436	      1.86773346	     38.09631692	      0.00000000	      0.00000000	    -20.50684378	     -5.11671971	      5.82250317	     16.38692753	    -54.24023329	     89.61152196	     90.15041808	     88.78907875	      0.00000000	      0.00000000	     21.88915284	    -57.77462647	     89.62997341	     97.93241591	     88.61329275	      0.00000000	      0.00000000
      1.87500000	    -34.81813551	      4.45804310	     -5.58995924	     -0.40454999	      0.60481798	     -0.91092922	    108.06996171	    -20.00805649	     11.33288206	    104.39322247	      1.82200545	     31.27667644	      0.00000000	      0.00000000	    106.30081453	    -30.23372975	      2.38632951	    106.99492942	      1.86741380	     38.19620286	      0.00000000	      0.00000000	    -20.39622640	     -5.07573578	      5.73134102	     16.36493512	    -54.22503841	     89.61301454	     90.04926572	     88.79208957	      0.00000000	      0.00000000	     21.82769738	    -57.68496265	     89.63466575	     97.66349981	     88.49814590	      0.00000000	      0.00000000
      1.88000000	    -34.89108482	      4.41487455	     -5.58528602	     -0.40436110	      0.60470136	     -0.91083133	    108.10911874	    -19.99724780	     11.27757462	    104.41029925	      1.82230349	     31.22637381	      0.00000000	      0.00000000	    106.39040380	    -30.23461226	      2.45107965	    106.98767465	      1.86728718	     38.31285814	      0.00000000	      0.00000000	    -20.29463551	     -5.02024898	      5.79581228	     16.25467078	    -54.26215261	     89.60463556	     90.02370873	     88.80129024	      0.00000000	      0.00000000	     21.82902527	    -57.66447822	     89.63579896	     97.65867008	     88.45594573	      0.00000000	      0.00000000
      1.88500000	    -34.69109801	      4.48065964	     -5.78920396	     -0.40382983	      0.60526609	     -0.91017884	    107.85355648	    -19.75718589	     11.30455631	    104.40751695	      1.82225493	     31.48766941	      0.00000000	      0.00000000	    106.10002343	    -30.54392839	      2.37902348	    107.01050000	      1.86768556	     38.11026407	      0.00000000	      0.00000000	    -20.51602824	     -5.19772141	      5.92332921	     16.36676501	    -54.24811874	     89.61070627	     90.11591745	     88.77836518	      0.00000000	      0.00000000	     21.87010859	    -57.73117164	     89.62868411	     97.68775750	     88.62928549	      0.00000000	      0.00000000
      1.89000000	    -34.80183310	      4.47633973	     -5.80273947	     -0.40366788	      0.60512368	     -0.91006104	    107.94679835	    -19.72745332	     11.26044367	    104.42737019	      1.82260144	     31.43447517	      0.00000000	      0.00000000	    106.19510782	    -30.56451465	      2.39062185	    106.98014201	      1.86715571	     38.23158809	      0.00000000	      0.00000000	    -20.35813953	     -5.17979721	      5.95159971	     16.31666909	    -54.23421825	     89.60902107	     90.13240582	     88.78721294	      0.00000000	      0.00000000	     21.77902600	    -57.71323549	     89.63159510	     97.68653712	     88.57166676	      0.00000000	      0.00000000
